<svg xmlns="http://www.w3.org/2000/svg" viewBox="0 0 200 200" width="200" height="200">
  <defs>
    <filter id="watercolor-pink" x="-50%" y="-50%" width="200%" height="200%">
      <feTurbulence type="fractalNoise" baseFrequency="0.02" numOctaves="5" result="noise"/>
      <feDisplacementMap in="SourceGraphic" in2="noise" scale="8" />
      <feGaussianBlur stdDeviation="1.5" />
    </filter>
    <radialGradient id="grad-pink-1" cx="30%" cy="30%" r="70%">
      <stop offset="0%" stop-color="#FFEBEE" stop-opacity="0.9"/>
      <stop offset="50%" stop-color="#FFCDD2" stop-opacity="0.8"/>
      <stop offset="100%" stop-color="#E57373" stop-opacity="0.6"/>
    </radialGradient>
    <radialGradient id="grad-leaf" cx="30%" cy="30%" r="70%">
      <stop offset="0%" stop-color="#E8F5E9" stop-opacity="0.9"/>
      <stop offset="100%" stop-color="#A5D6A7" stop-opacity="0.7"/>
    </radialGradient>
  </defs>
  <g filter="url(#watercolor-pink)">
    <!-- Leaves -->
    <path fill="url(#grad-leaf)" d="M40,40 Q20,10 60,30 Q90,50 40,40 Z" transform="rotate(-15 50 50)" />
    <path fill="url(#grad-leaf)" d="M120,50 Q150,20 130,60 Q100,90 120,50 Z" transform="rotate(10 120 50)" />
    
    <!-- Rose Cluster -->
    <circle cx="80" cy="80" r="35" fill="url(#grad-pink-1)" />
    <path fill="#EF9A9A" d="M70,70 Q90,50 100,80 Q90,110 60,90 Q50,70 70,70" opacity="0.6"/>
    
    <circle cx="120" cy="110" r="25" fill="url(#grad-pink-1)" opacity="0.9"/>
    <path fill="#EF9A9A" d="M115,105 Q125,95 130,110 Q125,125 110,115" opacity="0.6"/>

    <circle cx="60" cy="120" r="20" fill="url(#grad-pink-1)" opacity="0.8"/>
    
    <!-- Small buds -->
    <circle cx="150" cy="80" r="10" fill="#FFCDD2" opacity="0.7"/>
    <circle cx="80" cy="150" r="12" fill="#FFCDD2" opacity="0.7"/>
  </g>
</svg>
