<svg viewBox="0 0 250 650" xmlns="http://www.w3.org/2000/svg">
    <g transform="translate(125, 325) rotate(180) translate(-125, -325) translate(0.000000,799.000000) scale(0.100000,-0.100000)" fill="#2c3e50" stroke="none">
        <path d="M955 7984 c-11 -2 -44 -9 -74 -15 -30 -6 -89 -26 -131 -43 -348 -147
        -582 -531 -699 -1146 -33 -176 -45 -359 -45 -680 1 -421 18 -605 100 -1040 76
        -405 232 -1019 285 -1122 19 -37 20 -38 78 -38 88 0 306 40 1041 189 324 66
        398 85 412 101 20 24 25 64 38 305 15 267 42 368 180 685 190 437 205 492 204
        760 -1 278 -43 689 -95 940 -56 265 -153 514 -262 675 -58 85 -202 224 -299
        288 -95 62 -188 102 -291 123 -69 14 -401 28 -442 18z"/>
        <path d="M1925 3633 c-171 -23 -1002 -194 -1235 -254 -147 -37 -155 -45 -147
        -149 7 -89 88 -414 148 -590 133 -396 289 -614 524 -731 180 -89 423 -90 686
        -3 192 63 309 179 354 350 35 135 28 424 -16 682 -24 143 -118 523 -149 606
        -36 94 -54 104 -165 89z"/>
    </g>
</svg>
